<svg version="1.1" id="Layer_1" xmlns="http://www.w3.org/2000/svg" xmlns:xlink="http://www.w3.org/1999/xlink" x="0px" y="0px"
	 width="100%" viewBox="0 0 1942 809" enable-background="new 0 0 1942 809" xml:space="preserve">
<path fill="#010418" opacity="1.000000" stroke="none" 
	d="
M1372.000000,810.000000 
	C914.666687,810.000000 457.833344,810.000000 1.000000,810.000000 
	C1.000000,540.333313 1.000000,270.666656 1.000000,1.000000 
	C648.333313,1.000000 1295.666626,1.000000 1943.000000,1.000000 
	C1943.000000,270.666656 1943.000000,540.333313 1943.000000,810.000000 
	C1752.833374,810.000000 1562.666626,810.000000 1372.000000,810.000000 
M843.091980,484.872894 
	C843.091980,484.872894 843.121094,484.698730 842.876099,484.016632 
	C840.369324,483.365356 837.871155,482.193481 835.354248,482.151581 
	C823.457520,481.953430 811.555664,482.065063 799.655640,482.064819 
	C748.396729,482.063843 697.137634,482.023651 645.879089,482.161591 
	C642.945129,482.169525 640.015076,483.630157 636.844482,485.006989 
	C635.593262,489.716217 639.022949,488.795990 641.510742,488.797913 
	C708.615295,488.849854 775.719910,488.877899 843.503906,488.873901 
	C843.425171,487.546326 843.346436,486.218781 843.091980,484.872894 
M476.190247,300.816803 
	C482.564636,296.764160 484.478363,290.662811 481.072266,285.251831 
	C477.464386,279.520203 471.416046,278.664856 465.030212,282.561310 
	C463.750946,283.341888 461.333679,283.237061 459.872131,282.580719 
	C450.169556,278.223541 440.621155,273.524719 430.954132,269.086151 
	C397.691071,253.813660 364.410980,238.578018 331.101318,223.407501 
	C327.944733,221.969849 325.759979,220.518738 325.226074,216.513275 
	C324.587463,211.722229 319.825531,208.344482 315.245758,208.200531 
	C310.319336,208.045700 305.249664,211.275604 304.522278,216.190842 
	C303.940399,220.122650 301.921539,221.656342 298.733093,223.137756 
	C256.187439,242.905426 213.677460,262.750153 171.205948,282.676636 
	C168.604630,283.897125 166.903717,283.643768 164.579498,281.985840 
	C159.632858,278.457336 154.070099,279.572906 150.497971,284.303619 
	C147.107666,288.793549 147.173721,295.804932 151.911179,298.575134 
	C156.836563,301.455170 156.406113,305.194031 156.248962,309.454559 
	C156.156876,311.950623 156.185654,314.451660 156.185608,316.950470 
	C156.184357,382.091980 156.203613,447.233521 156.086411,512.374817 
	C156.083557,513.960144 154.969086,516.078613 153.690048,517.034119 
	C148.077682,521.227173 146.480362,527.478271 150.082565,532.684692 
	C153.312088,537.352478 159.680450,538.082703 165.309494,534.874084 
	C166.807770,534.020081 169.363022,533.724304 170.887573,534.401062 
	C214.361343,553.698914 257.773621,573.135681 301.140778,592.672180 
	C302.438904,593.256958 303.699554,595.026611 304.031372,596.462463 
	C305.412323,602.438232 309.008881,605.878174 314.543365,605.960571 
	C320.085083,606.043091 324.931335,602.267395 325.537872,596.440735 
	C325.845306,593.487183 327.249817,592.503723 329.455170,591.527222 
	C372.352936,572.533875 415.248047,553.534424 458.116333,534.474670 
	C461.004181,533.190735 463.093506,532.657898 466.056610,535.103027 
	C470.629242,538.876404 477.469452,537.377075 480.652283,532.786499 
	C484.062469,527.868042 482.882477,521.304810 477.968689,517.711914 
	C476.822113,516.873535 475.741119,515.945496 475.328247,514.544922 
	C475.552582,512.594604 475.972015,510.644318 475.973022,508.693878 
	C476.006897,441.696259 476.004028,374.698608 475.988434,307.700989 
	C475.987915,305.540161 475.799164,303.379395 476.190247,300.816803 
M1204.312378,357.500793 
	C1204.312378,349.066650 1204.312378,340.632507 1204.312378,332.272522 
	C1193.279907,331.255310 1193.289429,331.260834 1188.394531,339.743317 
	C1185.816406,344.210815 1183.231323,348.674896 1180.591064,353.105865 
	C1174.390137,363.512146 1168.154297,373.897614 1161.597900,384.850555 
	C1160.177246,382.691071 1159.031616,381.103302 1158.043213,379.423096 
	C1149.433716,364.787323 1140.895996,350.108978 1132.196899,335.526825 
	C1131.305176,334.032074 1129.649292,332.374847 1128.081421,332.039612 
	C1125.402588,331.466858 1122.512573,331.881653 1119.486328,331.881653 
	C1119.486328,358.753387 1119.486328,385.173370 1119.486328,411.814331 
	C1122.894897,411.814331 1126.143188,411.814331 1129.913818,411.814331 
	C1129.913818,391.719147 1129.913818,371.904907 1129.913818,350.703369 
	C1138.659668,365.725159 1146.667603,379.476135 1154.671753,393.229279 
	C1157.565796,398.202118 1165.447998,398.366119 1168.313721,393.459442 
	C1175.865967,380.528412 1183.370361,367.569427 1190.912354,354.632507 
	C1191.501221,353.622498 1192.235229,352.697083 1192.901733,351.732361 
	C1193.194824,351.841614 1193.487915,351.950867 1193.781006,352.060120 
	C1193.781006,371.966705 1193.781006,391.873291 1193.781006,411.760651 
	C1197.439819,411.760651 1200.668945,411.760651 1204.309326,411.760651 
	C1204.309326,393.774109 1204.309326,376.137451 1204.312378,357.500793 
M1020.498535,412.545074 
	C1024.990479,412.553772 1029.485962,412.683838 1033.973511,412.547943 
	C1046.491943,412.168793 1055.113403,403.221069 1055.106201,390.773621 
	C1055.098999,378.129944 1055.159058,365.486053 1055.100708,352.842651 
	C1055.047729,341.367249 1046.057617,332.035980 1034.715698,331.862061 
	C1024.070801,331.698792 1013.418945,331.686279 1002.774780,331.870453 
	C991.147278,332.071655 982.058838,341.495422 982.038086,353.105255 
	C982.015503,365.748871 982.030212,378.392670 982.075684,391.036224 
	C982.118835,403.030792 991.065552,412.276642 1003.029907,412.585358 
	C1008.515625,412.726868 1014.009094,412.569458 1020.498535,412.545074 
M782.236450,336.173981 
	C778.440002,328.760590 771.874329,333.041260 765.751404,331.621033 
	C776.664795,345.357452 786.904358,358.245697 797.263123,371.284027 
	C786.621826,384.774078 776.165283,398.029968 765.553528,411.482697 
	C773.281372,413.175232 779.473328,412.352539 783.364014,405.103210 
	C784.375244,403.219086 785.902527,401.603027 787.251038,399.910339 
	C792.684143,393.090607 798.140076,386.289062 803.933716,379.048248 
	C811.230530,388.320374 818.704468,396.503876 824.588318,405.704315 
	C829.410828,413.245422 835.457520,412.529602 842.831604,411.633636 
	C831.845886,398.015656 821.204468,384.824432 810.368652,371.392303 
	C821.239502,358.254944 831.897888,345.374298 843.041260,331.907532 
	C840.554321,331.907532 838.868042,332.131958 837.262634,331.866852 
	C831.703186,330.948761 828.123718,333.181274 824.775085,337.704651 
	C818.267395,346.495270 811.049622,354.760284 803.767090,363.682800 
	C796.572266,354.477509 789.635498,345.602295 782.236450,336.173981 
M1761.198975,353.454559 
	C1769.763184,372.045471 1778.303833,390.647369 1786.947632,409.201294 
	C1787.489380,410.364227 1788.755249,411.856903 1789.825317,411.981140 
	C1793.008301,412.350800 1796.261963,412.113708 1799.842896,412.113708 
	C1787.493530,385.885712 1775.431030,360.487427 1763.636719,334.965179 
	C1761.986084,331.393829 1759.489014,332.050476 1756.752319,331.804352 
	C1753.920410,331.549683 1752.642334,332.795929 1751.541626,335.242706 
	C1746.697388,346.009644 1741.709839,356.713043 1736.686401,367.398163 
	C1729.783691,382.080200 1722.801880,396.724884 1715.805054,411.488922 
	C1726.199707,413.033630 1726.316772,413.090881 1730.597412,404.339203 
	C1735.200562,394.927856 1739.563232,385.398682 1744.014404,375.913269 
	C1748.479980,366.397095 1752.925293,356.871399 1757.760498,346.535767 
	C1759.137207,349.257629 1760.019775,351.002411 1761.198975,353.454559 
M1629.571533,402.816376 
	C1625.905762,402.840576 1622.233032,403.017761 1618.575562,402.855804 
	C1611.810547,402.556213 1607.153198,397.651489 1607.121704,390.888000 
	C1607.064941,378.724152 1607.013794,366.559479 1607.089111,354.395996 
	C1607.139160,346.321594 1612.200439,341.365967 1620.266602,341.344391 
	C1628.431274,341.322540 1636.596191,341.413208 1644.760986,341.439423 
	C1649.703491,341.455292 1654.645996,341.442352 1659.548828,341.442352 
	C1659.548828,337.997955 1659.548828,335.230042 1659.548828,332.588287 
	C1658.965088,332.334900 1658.672363,332.097839 1658.377930,332.095825 
	C1645.216553,332.006042 1632.055176,331.911285 1618.893555,331.872620 
	C1606.091919,331.835022 1596.810059,341.040802 1596.763306,353.854706 
	C1596.717163,366.518494 1596.735718,379.182678 1596.771851,391.846558 
	C1596.805176,403.521973 1605.540527,412.394318 1617.292847,412.485657 
	C1629.122559,412.577576 1640.954346,412.465302 1652.784668,412.367279 
	C1655.064453,412.348389 1657.341187,411.981628 1659.714600,411.766693 
	C1659.714600,408.639832 1659.714600,405.899170 1659.714600,402.816559 
	C1649.823120,402.816559 1640.186890,402.816559 1629.571533,402.816376 
M651.094543,390.777313 
	C658.105530,376.218414 665.116455,361.659546 672.322327,346.695984 
	C682.007507,367.549530 691.449951,387.721283 700.703552,407.979279 
	C702.063232,410.955872 703.580566,412.551086 707.017273,412.096649 
	C709.229675,411.804138 711.512207,412.041718 714.357361,412.041718 
	C702.122803,386.126343 690.145203,360.949738 678.413208,335.659149 
	C676.939758,332.482788 675.150513,331.854584 671.982361,331.803497 
	C668.754028,331.751373 667.355103,333.028809 666.076721,335.776367 
	C658.854675,351.297607 651.475769,366.746277 644.081360,382.186646 
	C639.382446,391.998383 634.563843,401.752808 629.534119,412.076569 
	C631.984314,412.076569 633.831909,411.855713 635.606812,412.121155 
	C639.690002,412.731842 641.851807,411.166016 643.364563,407.245911 
	C645.452271,401.835815 648.317871,396.725861 651.094543,390.777313 
M1400.544678,341.505096 
	C1406.484009,341.505096 1412.423340,341.505096 1418.895020,341.505096 
	C1418.895020,365.358429 1418.895020,388.564758 1418.895020,411.739563 
	C1422.548218,411.739563 1425.643433,411.739563 1429.152344,411.739563 
	C1429.152344,388.327515 1429.152344,365.227631 1429.152344,341.466217 
	C1439.150757,341.466217 1448.741943,341.466217 1458.382568,341.466217 
	C1458.382568,337.916107 1458.382568,335.039124 1458.382568,332.211853 
	C1435.388550,332.211853 1412.801025,332.211853 1390.289307,332.211853 
	C1390.289307,335.411926 1390.289307,338.302032 1390.289307,341.514526 
	C1393.612915,341.514526 1396.589233,341.514526 1400.544678,341.505096 
M555.277954,401.500458 
	C555.302307,393.003571 555.394470,384.506226 555.339233,376.009827 
	C555.102112,339.525665 554.824097,303.041718 554.524414,266.558014 
	C554.521057,266.153046 554.045227,265.739899 553.754456,265.357483 
	C553.678101,265.257050 553.471191,265.233185 553.319946,265.218536 
	C553.156677,265.202728 552.988464,265.239014 552.164795,265.306244 
	C551.081787,362.504028 550.897400,459.753479 553.408752,557.009888 
	C555.113098,505.516510 555.408203,454.011414 555.277954,401.500458 
M1669.500000,485.143311 
	C1643.680786,485.124725 1617.861450,485.096069 1592.042236,485.103760 
	C1589.564087,485.104492 1586.166992,484.312195 1587.726929,489.157532 
	C1589.058594,489.218353 1590.367310,489.329559 1591.676025,489.330444 
	C1638.816772,489.361816 1685.957642,489.392700 1733.098389,489.400818 
	C1753.753662,489.404388 1774.408936,489.340088 1795.064209,489.356354 
	C1797.928955,489.358582 1800.292480,489.227570 1798.388062,485.143280 
	C1755.755615,485.143280 1713.127808,485.143280 1669.500000,485.143311 
M915.828552,411.991333 
	C916.235046,410.367920 916.985718,408.746368 916.994446,407.120819 
	C917.073975,392.315155 917.021240,377.508759 917.013306,362.702606 
	C917.007812,352.570679 917.012146,342.438782 917.012146,332.117737 
	C913.422852,332.117737 910.157227,332.117737 906.705322,332.117737 
	C906.705322,358.834137 906.705322,385.319794 906.705322,412.090210 
	C909.694458,412.090210 912.334412,412.090210 915.828552,411.991333 
M1529.724731,331.995605 
	C1526.625488,331.995605 1523.526245,331.995605 1520.474731,331.995605 
	C1520.474731,358.953308 1520.474731,385.334473 1520.474731,411.677887 
	C1524.077026,411.677887 1527.289429,411.677887 1530.739014,411.677887 
	C1530.739014,405.984406 1530.756836,400.664246 1530.735840,395.344208 
	C1530.653076,374.371857 1530.558105,353.399597 1529.724731,331.995605 
M1333.098877,335.468323 
	C1333.572388,332.619690 1332.366577,331.823639 1329.538940,331.864227 
	C1318.735840,332.019440 1307.929199,331.921967 1297.123779,331.920349 
	C1288.860474,331.919128 1280.597168,331.920105 1272.287109,331.920105 
	C1272.287109,335.258484 1272.287109,338.129059 1272.287109,341.115631 
	C1292.661499,341.115631 1312.713867,341.115631 1333.093994,341.115631 
	C1333.093994,339.357300 1333.093994,337.874542 1333.098877,335.468323 
M1302.500000,412.133698 
	C1312.586914,412.133698 1322.673828,412.133698 1332.829590,412.133698 
	C1332.829590,408.798645 1332.829590,405.928131 1332.829590,402.978394 
	C1312.464478,402.978394 1292.412231,402.978394 1272.309692,402.978394 
	C1272.309692,406.058472 1272.309692,408.927185 1272.309692,412.133270 
	C1282.261353,412.133270 1291.880737,412.133270 1302.500000,412.133698 
M1297.909424,376.274384 
	C1308.294312,376.274384 1318.679321,376.274384 1329.024048,376.274384 
	C1329.024048,372.789062 1329.024048,370.011475 1329.024048,367.323273 
	C1309.913574,367.323273 1291.066406,367.323273 1272.342529,367.323273 
	C1272.342529,370.461151 1272.342529,373.212646 1272.342529,376.277435 
	C1280.745239,376.277435 1288.866089,376.277435 1297.909424,376.274384 
M1526.141602,492.357697 
	C1526.141602,484.941589 1526.141602,477.525482 1526.141602,470.109344 
	C1525.591797,469.878448 1525.042114,469.647552 1524.492310,469.416656 
	C1517.191528,474.988068 1515.462158,484.796692 1509.069092,491.586304 
	C1505.326660,485.182526 1501.753540,478.815918 1497.882568,472.635895 
	C1496.999268,471.225616 1495.086914,470.459930 1492.997559,468.917297 
	C1492.997559,480.582825 1492.997559,490.795532 1492.997559,501.008270 
	C1497.280396,498.182068 1495.416626,493.983887 1495.758667,490.406189 
	C1496.155762,486.254181 1495.851196,482.035126 1495.851196,477.845154 
	C1499.660278,482.057861 1502.146240,486.531097 1504.916748,490.820465 
	C1506.085693,492.630341 1507.854614,494.052765 1509.350708,495.651215 
	C1510.867065,494.070801 1512.655884,492.670776 1513.844727,490.873749 
	C1516.583130,486.734650 1519.029907,482.402588 1521.594971,478.148804 
	C1522.049927,478.323730 1522.504883,478.498627 1522.959839,478.673523 
	C1522.959839,485.148560 1522.885742,491.625275 1523.031250,498.096985 
	C1523.056152,499.207184 1524.018066,500.296265 1524.547119,501.395081 
	C1525.076294,501.179260 1525.605469,500.963440 1526.134644,500.747620 
	C1526.134644,498.264893 1526.134644,495.782166 1526.141602,492.357697 
M996.429260,471.230743 
	C996.414490,480.214142 996.352112,489.198029 996.448730,498.180206 
	C996.460083,499.235046 997.346863,500.280487 997.827820,501.330261 
	C998.436646,500.241150 999.473755,499.188660 999.570618,498.055786 
	C999.820374,495.135773 999.654175,492.180206 999.654175,489.485229 
	C1007.467712,487.606506 1013.301575,488.734528 1016.046448,496.596008 
	C1016.367371,497.515289 1016.886353,498.540405 1017.627869,499.099701 
	C1018.975464,500.116211 1020.559326,500.819458 1022.044556,501.653473 
	C1022.233521,501.271332 1022.422485,500.889221 1022.611450,500.507080 
	C1020.323364,496.751953 1018.035278,492.996826 1015.652832,489.086792 
	C1017.254211,488.394226 1018.385132,488.084534 1019.316895,487.471954 
	C1024.121948,484.313141 1022.586060,479.335052 1022.048462,475.168610 
	C1021.790100,473.166443 1018.825989,470.099731 1016.928772,469.977661 
	C1010.215942,469.545685 1003.434692,470.176605 996.429260,471.230743 
M1435.263550,501.171448 
	C1435.767090,497.210022 1436.270630,493.248596 1436.772339,489.300964 
	C1443.921387,487.657471 1449.837646,488.569061 1452.690430,496.421967 
	C1453.079224,497.492249 1453.667603,498.670349 1454.520996,499.348450 
	C1455.747559,500.322937 1457.302368,500.884094 1458.717163,501.621674 
	C1458.882446,501.244385 1459.047607,500.867096 1459.212891,500.489807 
	C1457.024780,496.825012 1454.836670,493.160248 1452.546753,489.324982 
	C1453.887085,488.701019 1454.985840,488.332764 1455.931030,487.725555 
	C1460.733887,484.639923 1459.547119,479.657898 1458.866455,475.511383 
	C1458.510864,473.344696 1455.467896,470.219177 1453.375366,469.996185 
	C1446.708618,469.285706 1439.918579,469.732910 1432.924805,469.732910 
	C1432.924805,480.003632 1432.891602,489.607666 1432.994751,499.210236 
	C1433.002197,499.894836 1434.010254,500.568665 1435.263550,501.171448 
M1399.217407,478.166748 
	C1398.390869,472.095490 1395.976562,469.867371 1390.275146,469.891602 
	C1386.110596,469.909332 1381.944214,469.837616 1377.781860,469.937103 
	C1373.122681,470.048462 1369.945312,473.163422 1369.871948,477.717651 
	C1369.788696,482.880341 1369.792969,488.046631 1369.883057,493.209229 
	C1369.972900,498.350708 1373.164917,501.497681 1378.355835,501.600616 
	C1382.351685,501.679871 1386.350586,501.602600 1390.348145,501.597870 
	C1395.682861,501.591553 1399.056030,498.393066 1399.178345,493.025543 
	C1399.284424,488.363373 1399.214355,483.697174 1399.217407,478.166748 
M1096.968140,490.037018 
	C1101.115723,489.980164 1105.263306,489.889526 1109.411011,489.876068 
	C1113.494873,489.862854 1116.628540,488.295837 1117.686523,484.181335 
	C1119.312744,477.857635 1117.617554,472.405823 1113.687500,470.412750 
	C1112.973145,470.050507 1112.131104,469.754364 1111.345337,469.747894 
	C1104.920288,469.695007 1098.494507,469.718109 1091.616943,469.718109 
	C1092.193481,480.610229 1091.103516,491.047394 1093.196533,501.394562 
	C1094.409912,499.739746 1094.438843,498.063995 1094.697266,496.424438 
	C1095.031738,494.302124 1095.549316,492.208679 1096.968140,490.037018 
M1205.239380,487.478790 
	C1203.225830,491.926300 1201.212280,496.373779 1199.198730,500.821289 
	C1199.633301,501.162354 1200.067993,501.503418 1200.502563,501.844482 
	C1201.572876,500.796112 1203.306030,499.904846 1203.598389,498.672058 
	C1204.832764,493.465790 1208.236694,492.449707 1212.859985,493.071411 
	C1214.169067,493.247437 1215.540649,493.251526 1216.850220,493.079590 
	C1221.696899,492.443176 1225.223389,493.661438 1226.600708,498.959167 
	C1226.878052,500.025940 1228.555420,500.728729 1229.587280,501.599335 
	C1229.940063,501.219330 1230.292847,500.839325 1230.645630,500.459320 
	C1226.384033,491.103516 1222.175415,481.722626 1217.790527,472.424957 
	C1217.267700,471.316132 1215.739136,469.932983 1214.759399,469.994446 
	C1213.737183,470.058533 1212.467651,471.549530 1211.910034,472.707397 
	C1209.676636,477.346008 1207.677734,482.097443 1205.239380,487.478790 
M923.057739,490.290924 
	C920.817566,485.481781 918.691589,480.614471 916.286865,475.889099 
	C915.158325,473.671448 913.492493,471.727264 912.070190,469.659119 
	C910.524414,471.751556 908.593262,473.661804 907.502502,475.969330 
	C903.649109,484.121033 900.083496,492.408783 896.408752,500.644958 
	C896.846130,500.977753 897.283508,501.310547 897.720825,501.643341 
	C898.779053,500.547821 900.455017,499.611176 900.784851,498.328400 
	C901.991699,493.634979 905.015137,492.537598 909.321228,493.072571 
	C910.959229,493.276093 912.669739,493.286926 914.302917,493.063019 
	C918.839172,492.440918 921.862366,493.851593 923.262634,498.531982 
	C923.630188,499.760315 925.315186,500.594482 926.395142,501.609650 
	C926.752380,501.247345 927.109680,500.885040 927.466980,500.522736 
	C926.086792,497.348022 924.706604,494.173279 923.057739,490.290924 
M1316.087646,473.843506 
	C1316.112549,481.995758 1316.084717,490.148956 1316.230957,498.299042 
	C1316.248779,499.290680 1317.203491,500.265533 1317.724121,501.248138 
	C1318.220825,500.231293 1319.090698,499.234253 1319.145874,498.193970 
	C1319.327637,494.768890 1319.214233,491.328186 1319.214233,486.870667 
	C1325.834717,486.870667 1331.849854,486.870667 1337.864990,486.870667 
	C1337.841064,486.197449 1337.817017,485.524231 1337.792969,484.851013 
	C1331.698730,484.851013 1325.604492,484.851013 1319.471680,484.851013 
	C1319.471680,480.292847 1319.471680,476.707123 1319.471680,472.287628 
	C1326.473267,472.287628 1333.277954,472.287628 1341.085083,472.287628 
	C1339.839355,470.825073 1339.467529,470.000488 1339.082886,469.994415 
	C1332.097656,469.883942 1325.108276,469.783356 1318.127930,469.974640 
	C1317.421997,469.993958 1316.767822,471.900909 1316.087646,473.843506 
M1263.682129,469.832458 
	C1261.127563,469.909424 1258.572998,469.986420 1256.018433,470.063385 
	C1256.013550,470.794800 1256.008667,471.526245 1256.003784,472.257660 
	C1260.102417,472.474304 1264.200928,472.690948 1268.602173,472.923615 
	C1268.602173,481.303345 1268.528564,489.394012 1268.677368,497.480591 
	C1268.701050,498.776031 1269.720337,500.053223 1270.279419,501.338837 
	C1270.841431,500.045013 1271.866455,498.759583 1271.890015,497.456024 
	C1272.038696,489.217621 1271.965454,480.975189 1271.965454,472.763489 
	C1276.399170,472.562866 1280.226196,472.389679 1284.053223,472.216492 
	C1284.060303,471.519562 1284.067261,470.822601 1284.074341,470.125641 
	C1277.593384,470.026733 1271.112305,469.927826 1263.682129,469.832458 
M1149.606812,498.000824 
	C1149.281982,500.465088 1150.030396,501.603760 1152.840576,501.485962 
	C1158.489258,501.249207 1164.153931,501.422028 1169.809448,501.301178 
	C1170.689697,501.282410 1171.555908,500.605713 1172.428589,500.233215 
	C1172.361572,499.710236 1172.294678,499.187225 1172.227661,498.664246 
	C1165.935669,498.664246 1159.643555,498.664246 1152.868286,498.664246 
	C1152.868286,490.283142 1152.966919,482.825348 1152.799194,475.373566 
	C1152.757080,473.500336 1151.861572,471.646271 1151.358398,469.783417 
	C1150.779053,471.567505 1149.747192,473.339661 1149.699829,475.137787 
	C1149.506714,482.454193 1149.615356,489.778595 1149.606812,498.000824 
M960.523254,501.454742 
	C960.976990,501.056030 961.823914,500.660187 961.826843,500.258148 
	C961.900085,490.214569 961.884338,480.170319 961.884338,470.126190 
	C961.276367,469.921326 960.668396,469.716492 960.060425,469.511627 
	C959.484863,470.775269 958.437622,472.029022 958.410828,473.304199 
	C958.243530,481.259125 958.234497,489.219910 958.354004,497.176025 
	C958.375427,498.605896 959.237976,500.023102 960.523254,501.454742 
z"/>
<path fill="#EAEBEC" opacity="1.000000" stroke="none" 
	d="
M474.629913,515.058716 
	C475.741119,515.945496 476.822113,516.873535 477.968689,517.711914 
	C482.882477,521.304810 484.062469,527.868042 480.652283,532.786499 
	C477.469452,537.377075 470.629242,538.876404 466.056610,535.103027 
	C463.093506,532.657898 461.004181,533.190735 458.116333,534.474670 
	C415.248047,553.534424 372.352936,572.533875 329.455170,591.527222 
	C327.249817,592.503723 325.845306,593.487183 325.537872,596.440735 
	C324.931335,602.267395 320.085083,606.043091 314.543365,605.960571 
	C309.008881,605.878174 305.412323,602.438232 304.031372,596.462463 
	C303.699554,595.026611 302.438904,593.256958 301.140778,592.672180 
	C257.773621,573.135681 214.361343,553.698914 170.887573,534.401062 
	C169.363022,533.724304 166.807770,534.020081 165.309494,534.874084 
	C159.680450,538.082703 153.312088,537.352478 150.082565,532.684692 
	C146.480362,527.478271 148.077682,521.227173 153.690048,517.034119 
	C154.969086,516.078613 156.083557,513.960144 156.086411,512.374817 
	C156.203613,447.233521 156.184357,382.091980 156.185608,316.950470 
	C156.185654,314.451660 156.156876,311.950623 156.248962,309.454559 
	C156.406113,305.194031 156.836563,301.455170 151.911179,298.575134 
	C147.173721,295.804932 147.107666,288.793549 150.497971,284.303619 
	C154.070099,279.572906 159.632858,278.457336 164.579498,281.985840 
	C166.903717,283.643768 168.604630,283.897125 171.205948,282.676636 
	C213.677460,262.750153 256.187439,242.905426 298.733093,223.137756 
	C301.921539,221.656342 303.940399,220.122650 304.522278,216.190842 
	C305.249664,211.275604 310.319336,208.045700 315.245758,208.200531 
	C319.825531,208.344482 324.587463,211.722229 325.226074,216.513275 
	C325.759979,220.518738 327.944733,221.969849 331.101318,223.407501 
	C364.410980,238.578018 397.691071,253.813660 430.954132,269.086151 
	C440.621155,273.524719 450.169556,278.223541 459.872131,282.580719 
	C461.333679,283.237061 463.750946,283.341888 465.030212,282.561310 
	C471.416046,278.664856 477.464386,279.520203 481.072266,285.251831 
	C484.478363,290.662811 482.564636,296.764160 475.474487,301.220154 
	C474.584595,303.082214 474.258362,304.540955 474.258240,305.999695 
	C474.252655,369.550171 474.266937,433.100616 474.310089,496.651093 
	C474.314240,502.787018 474.518524,508.922852 474.629913,515.058716 
M456.204895,516.700439 
	C456.752930,516.808716 457.300934,516.917053 458.808014,517.214905 
	C457.557281,516.170532 457.086456,515.777405 456.191803,514.878662 
	C434.986176,493.653137 413.780518,472.427612 391.957184,450.583771 
	C391.957184,458.902710 391.954376,466.299194 391.963470,473.695709 
	C391.964081,474.190063 391.868927,474.959900 392.131775,475.137360 
	C396.188110,477.876221 399.007721,481.217621 398.445526,486.549713 
	C398.405151,486.932739 399.656952,487.536011 400.376312,487.902802 
	C418.865814,497.330994 437.364471,506.741302 456.204895,516.700439 
M454.836456,301.615936 
	C435.889252,311.232635 416.942017,320.849335 398.169006,330.377625 
	C398.129578,336.636902 398.117035,336.623657 393.156952,341.321411 
	C392.606567,341.842651 391.942261,342.617126 391.934845,343.280914 
	C391.849274,350.953949 391.880188,358.628265 391.880188,365.109558 
	C413.216644,344.328949 434.776398,323.330872 456.771942,302.003052 
	C456.353607,301.813232 455.935272,301.623413 454.836456,301.615936 
M176.164062,515.377258 
	C194.149063,506.345367 212.133881,497.313171 230.119919,488.283356 
	C230.565689,488.059570 231.399261,487.896576 231.422318,487.647034 
	C231.937927,482.066040 237.170471,478.495514 238.391327,474.162842 
	C240.400925,467.031006 238.936325,458.920227 238.936325,451.222137 
	C238.509979,451.047424 238.083633,450.872681 237.657288,450.697968 
	C232.126099,456.434998 226.643951,462.220306 221.054260,467.899750 
	C205.657364,483.543945 190.215439,499.143860 174.176636,514.865845 
	C173.885574,515.123596 173.594513,515.381348 173.303467,515.639099 
	C174.025330,515.609436 174.747177,515.579712 176.164062,515.377258 
M172.882568,300.090790 
	C172.307816,300.140106 171.733063,300.189392 169.912521,300.345581 
	C171.698273,300.844971 172.271927,301.005371 173.103836,301.782532 
	C194.827988,323.467773 216.552124,345.152985 238.930252,367.491028 
	C238.930252,360.136292 238.518463,353.675079 239.037628,347.289551 
	C239.645630,339.811584 230.326736,336.951324 231.343643,329.494080 
	C231.366577,329.325928 230.522186,329.032654 230.076981,328.808411 
	C211.207916,319.303894 192.338242,309.800568 172.882568,300.090790 
M431.026581,484.465759 
	C442.080322,495.776855 453.134064,507.087952 463.759949,517.961182 
	C468.971039,517.067993 470.022247,514.665161 470.013153,510.464783 
	C469.866425,442.640076 469.875610,374.814941 470.002869,306.990143 
	C470.010498,302.908936 469.283386,300.280426 464.068420,299.830383 
	C441.064423,323.008789 417.696564,346.519470 394.421539,370.121582 
	C393.416931,371.140320 392.795807,372.999298 392.788788,374.470612 
	C392.678925,397.465546 392.654633,420.461395 392.792847,443.455933 
	C392.802032,444.981171 393.970856,446.795380 395.116791,447.972198 
	C406.857727,460.029449 418.705536,471.982635 431.026581,484.465759 
M160.816544,305.676514 
	C160.816544,375.653320 160.816544,445.630157 160.816544,515.290588 
	C163.991730,517.771912 165.995239,517.501709 168.685196,514.781921 
	C190.713730,492.509094 212.975891,470.467468 235.066422,448.255493 
	C236.408844,446.905670 237.648834,444.708282 237.662354,442.895752 
	C237.831360,420.231689 237.811600,397.565552 237.667343,374.901062 
	C237.656143,373.139893 236.805115,370.933319 235.576340,369.697479 
	C213.019836,347.012115 190.364120,324.425110 167.630417,301.917297 
	C166.725250,301.021149 164.519012,300.433167 163.498764,300.919037 
	C162.278702,301.500061 161.683167,303.392487 160.816544,305.676514 
M400.939392,324.850800 
	C420.074341,315.081024 439.228912,305.349091 458.300232,295.456665 
	C459.578308,294.793701 460.999634,292.896484 460.967285,291.608124 
	C460.928711,290.070190 459.626038,288.344055 458.436127,287.123199 
	C457.449982,286.111420 455.849884,285.677887 454.492950,285.050537 
	C420.674561,269.415802 386.852997,253.787979 353.030334,238.162476 
	C343.565460,233.789841 334.095367,229.428452 324.443054,224.976761 
	C323.152313,226.427979 322.346344,228.196350 321.128296,228.551529 
	C316.347443,229.945480 316.788452,233.536087 316.796387,237.211960 
	C316.830536,253.042725 316.792023,268.873810 316.727570,284.704559 
	C316.713013,288.280396 316.006256,291.888947 320.518433,293.758850 
	C321.719330,294.256500 322.096466,296.559814 323.044342,297.897675 
	C324.155914,299.466614 325.175049,301.535126 326.754456,302.272095 
	C345.003632,310.787537 363.351410,319.091644 381.961395,327.583466 
	C385.224091,324.444733 389.310333,322.517639 393.499634,325.363007 
	C396.216492,327.208252 398.008881,326.505798 400.939392,324.850800 
M298.463470,304.053864 
	C306.622101,303.482086 306.179626,293.672913 312.415405,290.968475 
	C312.783173,290.808960 312.687836,289.416931 312.687805,288.598480 
	C312.686615,270.282898 312.692261,251.967209 312.596588,233.652054 
	C312.590668,232.521835 312.071899,231.027756 311.255249,230.339935 
	C309.159912,228.575119 306.762268,227.169205 304.174561,225.408249 
	C260.368073,245.792679 216.353241,266.252136 172.397415,286.837585 
	C171.125854,287.433044 169.573029,289.506104 169.752365,290.636169 
	C170.023773,292.346130 171.341873,294.526062 172.840607,295.308868 
	C192.452698,305.552155 212.155563,315.622986 231.914200,325.581238 
	C233.204681,326.231659 235.134872,325.590820 236.767548,325.588898 
	C239.765015,325.585358 242.763306,325.573029 245.759674,325.637573 
	C247.543167,325.675995 249.621964,326.515900 251.059677,325.867828 
	C266.686096,318.824097 282.211792,311.556976 298.463470,304.053864 
M316.791687,545.499939 
	C316.794922,556.997864 316.774170,568.495911 316.831879,579.993530 
	C316.839081,581.427490 316.778534,583.259583 317.576080,584.222168 
	C320.841522,588.163330 324.900513,588.750977 330.141052,586.420471 
	C355.076324,575.331238 379.999817,564.215637 404.938904,553.135010 
	C422.559631,545.305969 440.221588,537.568726 457.786774,529.617432 
	C459.234192,528.962280 460.947113,526.983398 460.956055,525.609314 
	C460.964600,524.290405 459.176849,522.461182 457.733826,521.706787 
	C438.701233,511.757202 419.575989,501.985138 400.516510,492.086548 
	C398.168427,490.867065 396.483185,490.656860 393.772461,491.924377 
	C391.352386,493.056091 387.421448,492.853302 385.019684,491.594238 
	C382.619141,490.335815 381.110077,490.183441 378.795502,491.181122 
	C362.281555,498.299042 345.729492,505.329315 329.156006,512.307800 
	C326.025330,513.626038 323.065552,514.739319 322.993225,518.972595 
	C322.974243,520.083313 321.857971,521.836792 320.874054,522.158386 
	C315.820404,523.810303 316.840210,527.827759 316.830872,531.502808 
	C316.819855,535.835205 316.806030,540.167603 316.791687,545.499939 
M247.734879,490.772125 
	C244.690048,493.278015 241.072891,494.864441 237.676224,492.453094 
	C234.525558,490.216370 232.290802,491.244812 229.549728,492.650024 
	C210.592880,502.368073 191.581680,511.980560 172.667984,521.781372 
	C171.252441,522.514893 169.453598,524.591003 169.623322,525.789368 
	C169.850021,527.390015 171.533691,529.399597 173.099686,530.103882 
	C200.838028,542.578369 228.669830,554.844849 256.446472,567.234558 
	C272.705994,574.487061 288.904144,581.877258 304.253662,588.809692 
	C313.330750,586.275879 312.731323,579.806824 312.618622,573.146057 
	C312.384827,559.324341 312.611725,545.494751 312.652100,531.668396 
	C312.662903,527.958740 313.539825,523.994507 308.705841,522.140625 
	C307.713409,521.760010 306.659729,520.035522 306.636932,518.910095 
	C306.566498,515.439514 304.087036,514.700317 301.647949,513.644897 
	C283.923615,505.975616 266.214905,498.270111 247.734879,490.772125 
M348.499268,439.848480 
	C355.990387,439.815155 363.481506,439.780334 370.972626,439.748993 
	C375.342926,439.730713 380.222198,435.181152 380.251190,430.760101 
	C380.350494,415.611938 380.359039,400.462921 380.319397,385.314423 
	C380.310486,381.906250 375.885254,377.293365 372.746185,377.284241 
	C358.263397,377.242157 343.780365,377.220795 329.297699,377.270905 
	C325.222870,377.285034 320.113922,382.711975 320.105896,386.898163 
	C320.078491,401.214508 320.074280,415.530975 320.116486,429.847229 
	C320.120209,431.113098 320.075165,432.847198 320.821167,433.563019 
	C324.349579,436.948669 327.253235,441.189972 333.549957,439.965118 
	C338.037811,439.092133 342.838623,439.828186 348.499268,439.848480 
M266.549377,439.778961 
	C277.696594,439.787903 288.843842,439.805389 299.991058,439.800659 
	C303.457855,439.799194 309.604431,434.130219 309.620361,430.605743 
	C309.687958,415.632446 309.647949,400.658264 309.565674,385.684875 
	C309.549774,382.792786 304.555481,377.331146 301.855682,377.316589 
	C287.547913,377.239441 273.239380,377.246399 258.931549,377.315491 
	C256.293701,377.328247 250.848450,383.061462 250.839905,385.693817 
	C250.791290,400.667603 250.771820,415.641632 250.832855,430.615234 
	C250.837631,431.787445 251.259827,433.166809 251.964432,434.083771 
	C253.423706,435.982819 255.203781,437.635315 257.214294,439.774811 
	C259.586090,439.774811 262.579071,439.774811 266.549377,439.778961 
M359.284271,321.098053 
	C347.788574,315.835052 336.304077,310.547302 324.790161,305.324463 
	C321.414612,303.793274 316.816193,306.494720 316.798706,310.136993 
	C316.718018,326.944763 316.728302,343.753204 316.785797,360.561127 
	C316.797516,363.990173 323.039368,367.726959 326.033508,366.074066 
	C343.484375,356.440186 360.909027,346.758057 378.265411,336.955688 
	C379.400238,336.314728 380.656647,334.424805 380.492004,333.319061 
	C380.287689,331.946655 378.914795,330.278656 377.603912,329.621552 
	C371.810577,326.717438 365.858215,324.130554 359.284271,321.098053 
M312.629669,313.398987 
	C313.847504,308.576233 310.836823,306.193420 307.041016,303.977020 
	C289.061493,312.231476 270.916840,320.498260 252.870041,328.973358 
	C251.496201,329.618530 250.025116,331.743134 250.030991,333.174194 
	C250.037079,334.661469 251.438416,336.745667 252.819946,337.532837 
	C269.407349,346.983917 286.095856,356.257904 302.779205,365.539978 
	C306.829163,367.793213 312.693115,364.334717 312.692627,359.727051 
	C312.691010,344.591187 312.655792,329.455353 312.629669,313.398987 
M375.305267,488.863403 
	C377.340240,487.364960 381.836090,487.916718 380.673431,483.835052 
	C380.098450,481.816528 377.706451,479.915497 375.679047,478.773743 
	C358.603577,469.157654 341.422150,459.729736 324.309143,450.265411 
	C321.871063,451.834045 319.413055,453.415466 316.805328,455.093231 
	C316.805328,470.004364 316.987885,484.992798 316.705292,499.972412 
	C316.607727,505.144257 317.067078,509.405640 323.017365,511.240814 
	C339.995117,503.960358 357.284180,496.546417 375.305267,488.863403 
M284.610260,462.091309 
	C274.028473,468.014282 263.392365,473.844421 252.927170,479.966675 
	C251.465210,480.821899 250.075073,483.112152 250.073837,484.739166 
	C250.072845,486.054169 251.972076,487.848083 253.450211,488.597290 
	C257.892639,490.848999 262.533325,492.712158 267.111145,494.693481 
	C280.327667,500.413849 293.551270,506.117828 305.920044,511.460175 
	C312.724792,509.203094 312.795990,504.506805 312.678040,499.261627 
	C312.412598,487.457825 312.295654,475.630890 312.758423,463.838501 
	C313.007355,457.494598 312.370941,452.432434 304.601196,450.679138 
	C298.507172,454.169983 291.885864,457.962860 284.610260,462.091309 
M346.269379,458.242981 
	C357.150757,464.341034 367.999725,470.498016 378.927460,476.511841 
	C384.264801,479.449188 387.833252,477.295624 387.909088,471.283112 
	C387.988922,464.952789 388.052368,458.622070 388.068359,452.291382 
	C388.073090,450.423767 387.892700,448.555695 387.829651,447.323303 
	C384.305756,446.914032 380.596863,447.594757 379.101257,446.084167 
	C375.717346,442.666260 371.963776,443.278320 368.108185,443.247406 
	C360.444458,443.185974 352.780121,443.190216 345.116058,443.178864 
	C338.850861,443.169556 332.585693,443.176971 326.356140,443.176971 
	C326.260437,447.006561 326.260437,447.006561 346.269379,458.242981 
M250.128189,447.150970 
	C247.920639,446.841309 245.713089,446.531647 243.495834,446.213654 
	C243.286880,446.459717 242.900208,446.701874 242.894684,446.952454 
	C242.693130,456.072083 242.401749,465.193054 242.438583,474.312531 
	C242.448563,476.785339 247.371170,478.808716 249.773117,477.450317 
	C267.259979,467.561066 284.725677,457.633606 302.115662,447.575714 
	C303.152985,446.975769 303.480225,445.148071 304.493225,443.212799 
	C291.273651,443.212799 279.475677,443.190338 267.677887,443.222321 
	C261.831299,443.238190 255.722244,442.189880 250.128189,447.150970 
M382.521606,339.018402 
	C364.502258,349.031189 346.463806,359.010101 328.505157,369.130585 
	C327.269989,369.826691 326.630768,371.580322 324.892975,373.973206 
	C342.364349,373.973206 358.006470,373.985535 373.648468,373.942108 
	C374.570312,373.939545 375.888275,373.792847 376.347443,373.195129 
	C379.316437,369.330078 383.101288,368.900848 387.707184,370.764191 
	C387.707184,360.900787 387.707184,351.634827 387.707184,342.434113 
	C386.186646,341.406891 384.684235,340.391907 382.521606,339.018402 
M294.481232,364.989838 
	C279.885712,356.737671 265.303223,348.462311 250.686203,340.248383 
	C246.674255,337.993896 242.501770,340.501984 242.475937,345.128448 
	C242.436005,352.278625 242.428253,359.429749 242.511139,366.579254 
	C242.528488,368.075256 242.998581,369.566040 243.276993,371.155945 
	C249.566040,369.015503 249.546478,369.043701 255.445938,373.134979 
	C256.185730,373.648010 257.261780,373.892456 258.183105,373.895264 
	C273.300140,373.940887 288.417328,373.927643 305.201538,373.927643 
	C303.685608,371.681915 303.112122,370.150787 302.008942,369.343567 
	C299.878723,367.784851 297.449585,366.634705 294.481232,364.989838 
M241.307632,437.918732 
	C241.453522,439.060242 241.599411,440.201721 241.745758,441.346832 
	C242.727097,439.204010 243.093872,436.442780 244.557907,435.609619 
	C247.720657,433.809753 247.618195,431.352692 247.601379,428.478333 
	C247.539032,417.829193 247.625366,407.179291 247.583511,396.529968 
	C247.555573,389.419189 249.329254,381.731812 241.289261,376.981842 
	C241.289261,396.934570 241.289261,416.991547 241.307632,437.918732 
M384.023254,412.499817 
	C384.028412,417.655365 384.346252,422.835571 383.941925,427.958801 
	C383.605469,432.221802 385.159027,434.818024 388.890015,436.611176 
	C388.890015,417.654358 388.890015,398.948883 388.890015,380.060486 
	C385.064819,381.646576 383.665497,383.988220 383.876556,388.056580 
	C384.280975,395.852478 384.009186,403.683502 384.023254,412.499817 
M313.059753,401.501404 
	C313.059753,411.720215 313.059753,421.939026 313.059753,432.157837 
	C313.664978,432.360809 314.270233,432.563782 314.875458,432.766754 
	C315.503204,431.568848 316.666718,430.375427 316.676880,429.172272 
	C316.795929,415.052124 316.791595,400.929901 316.639587,386.810211 
	C316.627380,385.676025 315.284088,384.556152 314.559357,383.429626 
	C314.059052,383.665009 313.558777,383.900360 313.058472,384.135712 
	C313.058472,389.591156 313.058472,395.046631 313.059753,401.501404 
z"/>
<path fill="#F0F0F1" opacity="1.000000" stroke="none" 
	d="
M1204.310791,358.000793 
	C1204.309326,376.137451 1204.309326,393.774109 1204.309326,411.760651 
	C1200.668945,411.760651 1197.439819,411.760651 1193.781006,411.760651 
	C1193.781006,391.873291 1193.781006,371.966705 1193.781006,352.060120 
	C1193.487915,351.950867 1193.194824,351.841614 1192.901733,351.732361 
	C1192.235229,352.697083 1191.501221,353.622498 1190.912354,354.632507 
	C1183.370361,367.569427 1175.865967,380.528412 1168.313721,393.459442 
	C1165.447998,398.366119 1157.565796,398.202118 1154.671753,393.229279 
	C1146.667603,379.476135 1138.659668,365.725159 1129.913818,350.703369 
	C1129.913818,371.904907 1129.913818,391.719147 1129.913818,411.814331 
	C1126.143188,411.814331 1122.894897,411.814331 1119.486328,411.814331 
	C1119.486328,385.173370 1119.486328,358.753387 1119.486328,331.881653 
	C1122.512573,331.881653 1125.402588,331.466858 1128.081421,332.039612 
	C1129.649292,332.374847 1131.305176,334.032074 1132.196899,335.526825 
	C1140.895996,350.108978 1149.433716,364.787323 1158.043213,379.423096 
	C1159.031616,381.103302 1160.177246,382.691071 1161.597900,384.850555 
	C1168.154297,373.897614 1174.390137,363.512146 1180.591064,353.105865 
	C1183.231323,348.674896 1185.816406,344.210815 1188.394531,339.743317 
	C1193.289429,331.260834 1193.279907,331.255310 1204.312378,332.272522 
	C1204.312378,340.632507 1204.312378,349.066650 1204.310791,358.000793 
z"/>
<path fill="#F2F2F3" opacity="1.000000" stroke="none" 
	d="
M1019.998779,412.546326 
	C1014.009094,412.569458 1008.515625,412.726868 1003.029907,412.585358 
	C991.065552,412.276642 982.118835,403.030792 982.075684,391.036224 
	C982.030212,378.392670 982.015503,365.748871 982.038086,353.105255 
	C982.058838,341.495422 991.147278,332.071655 1002.774780,331.870453 
	C1013.418945,331.686279 1024.070801,331.698792 1034.715698,331.862061 
	C1046.057617,332.035980 1055.047729,341.367249 1055.100708,352.842651 
	C1055.159058,365.486053 1055.098999,378.129944 1055.106201,390.773621 
	C1055.113403,403.221069 1046.491943,412.168793 1033.973511,412.547943 
	C1029.485962,412.683838 1024.990479,412.553772 1019.998779,412.546326 
M992.526855,374.499054 
	C992.544922,379.992523 992.531250,385.486298 992.589111,390.979340 
	C992.661316,397.822540 997.153198,402.672272 1004.057251,402.825806 
	C1013.542053,403.036774 1023.039551,403.067017 1032.522949,402.828857 
	C1039.812012,402.645813 1044.656372,397.817474 1044.698120,390.926544 
	C1044.771973,378.774445 1044.770752,366.618011 1044.521240,354.469147 
	C1044.340942,345.698975 1039.704224,341.394867 1031.010986,341.360199 
	C1022.853455,341.327667 1014.695862,341.332764 1006.538269,341.337341 
	C997.382263,341.342438 992.640198,345.881989 992.478455,355.021881 
	C992.369568,361.178650 992.514832,367.339935 992.526855,374.499054 
z"/>
<path fill="#F2F2F3" opacity="1.000000" stroke="none" 
	d="
M782.467529,336.450562 
	C789.635498,345.602295 796.572266,354.477509 803.767090,363.682800 
	C811.049622,354.760284 818.267395,346.495270 824.775085,337.704651 
	C828.123718,333.181274 831.703186,330.948761 837.262634,331.866852 
	C838.868042,332.131958 840.554321,331.907532 843.041260,331.907532 
	C831.897888,345.374298 821.239502,358.254944 810.368652,371.392303 
	C821.204468,384.824432 831.845886,398.015656 842.831604,411.633636 
	C835.457520,412.529602 829.410828,413.245422 824.588318,405.704315 
	C818.704468,396.503876 811.230530,388.320374 803.933716,379.048248 
	C798.140076,386.289062 792.684143,393.090607 787.251038,399.910339 
	C785.902527,401.603027 784.375244,403.219086 783.364014,405.103210 
	C779.473328,412.352539 773.281372,413.175232 765.553528,411.482697 
	C776.165283,398.029968 786.621826,384.774078 797.263123,371.284027 
	C786.904358,358.245697 776.664795,345.357452 765.751404,331.621033 
	C771.874329,333.041260 778.440002,328.760590 782.467529,336.450562 
z"/>
<path fill="#F0F0F1" opacity="1.000000" stroke="none" 
	d="
M1761.050537,353.100891 
	C1760.019775,351.002411 1759.137207,349.257629 1757.760498,346.535767 
	C1752.925293,356.871399 1748.479980,366.397095 1744.014404,375.913269 
	C1739.563232,385.398682 1735.200562,394.927856 1730.597412,404.339203 
	C1726.316772,413.090881 1726.199707,413.033630 1715.805054,411.488922 
	C1722.801880,396.724884 1729.783691,382.080200 1736.686401,367.398163 
	C1741.709839,356.713043 1746.697388,346.009644 1751.541626,335.242706 
	C1752.642334,332.795929 1753.920410,331.549683 1756.752319,331.804352 
	C1759.489014,332.050476 1761.986084,331.393829 1763.636719,334.965179 
	C1775.431030,360.487427 1787.493530,385.885712 1799.842896,412.113708 
	C1796.261963,412.113708 1793.008301,412.350800 1789.825317,411.981140 
	C1788.755249,411.856903 1787.489380,410.364227 1786.947632,409.201294 
	C1778.303833,390.647369 1769.763184,372.045471 1761.050537,353.100891 
z"/>
<path fill="#F6F6F7" opacity="1.000000" stroke="none" 
	d="
M1630.061157,402.816467 
	C1640.186890,402.816559 1649.823120,402.816559 1659.714600,402.816559 
	C1659.714600,405.899170 1659.714600,408.639832 1659.714600,411.766693 
	C1657.341187,411.981628 1655.064453,412.348389 1652.784668,412.367279 
	C1640.954346,412.465302 1629.122559,412.577576 1617.292847,412.485657 
	C1605.540527,412.394318 1596.805176,403.521973 1596.771851,391.846558 
	C1596.735718,379.182678 1596.717163,366.518494 1596.763306,353.854706 
	C1596.810059,341.040802 1606.091919,331.835022 1618.893555,331.872620 
	C1632.055176,331.911285 1645.216553,332.006042 1658.377930,332.095825 
	C1658.672363,332.097839 1658.965088,332.334900 1659.548828,332.588287 
	C1659.548828,335.230042 1659.548828,337.997955 1659.548828,341.442352 
	C1654.645996,341.442352 1649.703491,341.455292 1644.760986,341.439423 
	C1636.596191,341.413208 1628.431274,341.322540 1620.266602,341.344391 
	C1612.200439,341.365967 1607.139160,346.321594 1607.089111,354.395996 
	C1607.013794,366.559479 1607.064941,378.724152 1607.121704,390.888000 
	C1607.153198,397.651489 1611.810547,402.556213 1618.575562,402.855804 
	C1622.233032,403.017761 1625.905762,402.840576 1630.061157,402.816467 
z"/>
<path fill="#F2F2F3" opacity="1.000000" stroke="none" 
	d="
M650.972412,391.132324 
	C648.317871,396.725861 645.452271,401.835815 643.364563,407.245911 
	C641.851807,411.166016 639.690002,412.731842 635.606812,412.121155 
	C633.831909,411.855713 631.984314,412.076569 629.534119,412.076569 
	C634.563843,401.752808 639.382446,391.998383 644.081360,382.186646 
	C651.475769,366.746277 658.854675,351.297607 666.076721,335.776367 
	C667.355103,333.028809 668.754028,331.751373 671.982361,331.803497 
	C675.150513,331.854584 676.939758,332.482788 678.413208,335.659149 
	C690.145203,360.949738 702.122803,386.126343 714.357361,412.041718 
	C711.512207,412.041718 709.229675,411.804138 707.017273,412.096649 
	C703.580566,412.551086 702.063232,410.955872 700.703552,407.979279 
	C691.449951,387.721283 682.007507,367.549530 672.322327,346.695984 
	C665.116455,361.659546 658.105530,376.218414 650.972412,391.132324 
z"/>
<path fill="#F3F4F5" opacity="1.000000" stroke="none" 
	d="
M1400.055176,341.509827 
	C1396.589233,341.514526 1393.612915,341.514526 1390.289307,341.514526 
	C1390.289307,338.302032 1390.289307,335.411926 1390.289307,332.211853 
	C1412.801025,332.211853 1435.388550,332.211853 1458.382568,332.211853 
	C1458.382568,335.039124 1458.382568,337.916107 1458.382568,341.466217 
	C1448.741943,341.466217 1439.150757,341.466217 1429.152344,341.466217 
	C1429.152344,365.227631 1429.152344,388.327515 1429.152344,411.739563 
	C1425.643433,411.739563 1422.548218,411.739563 1418.895020,411.739563 
	C1418.895020,388.564758 1418.895020,365.358429 1418.895020,341.505096 
	C1412.423340,341.505096 1406.484009,341.505096 1400.055176,341.509827 
z"/>
<path fill="#E1E2E4" opacity="1.000000" stroke="none" 
	d="
M555.277954,402.000549 
	C555.408203,454.011414 555.113098,505.516510 553.408752,557.009888 
	C550.897400,459.753479 551.081787,362.504028 552.164795,265.306244 
	C552.988464,265.239014 553.156677,265.202728 553.319946,265.218536 
	C553.471191,265.233185 553.678101,265.257050 553.754456,265.357483 
	C554.045227,265.739899 554.521057,266.153046 554.524414,266.558014 
	C554.824097,303.041718 555.102112,339.525665 555.339233,376.009827 
	C555.394470,384.506226 555.302307,393.003571 555.277954,402.000549 
z"/>
<path fill="#E5E6E8" opacity="1.000000" stroke="none" 
	d="
M1670.000000,485.143311 
	C1713.127808,485.143280 1755.755615,485.143280 1798.388062,485.143280 
	C1800.292480,489.227570 1797.928955,489.358582 1795.064209,489.356354 
	C1774.408936,489.340088 1753.753662,489.404388 1733.098389,489.400818 
	C1685.957642,489.392700 1638.816772,489.361816 1591.676025,489.330444 
	C1590.367310,489.329559 1589.058594,489.218353 1587.726929,489.157532 
	C1586.166992,484.312195 1589.564087,485.104492 1592.042236,485.103760 
	C1617.861450,485.096069 1643.680786,485.124725 1670.000000,485.143311 
z"/>
<path fill="#EAEBEC" opacity="1.000000" stroke="none" 
	d="
M915.401428,412.040771 
	C912.334412,412.090210 909.694458,412.090210 906.705322,412.090210 
	C906.705322,385.319794 906.705322,358.834137 906.705322,332.117737 
	C910.157227,332.117737 913.422852,332.117737 917.012146,332.117737 
	C917.012146,342.438782 917.007812,352.570679 917.013306,362.702606 
	C917.021240,377.508759 917.073975,392.315155 916.994446,407.120819 
	C916.985718,408.746368 916.235046,410.367920 915.401428,412.040771 
z"/>
<path fill="#EAEBEC" opacity="1.000000" stroke="none" 
	d="
M1530.096191,332.211426 
	C1530.558105,353.399597 1530.653076,374.371857 1530.735840,395.344208 
	C1530.756836,400.664246 1530.739014,405.984406 1530.739014,411.677887 
	C1527.289429,411.677887 1524.077026,411.677887 1520.474731,411.677887 
	C1520.474731,385.334473 1520.474731,358.953308 1520.474731,331.995605 
	C1523.526245,331.995605 1526.625488,331.995605 1530.096191,332.211426 
z"/>
<path fill="#D3D5D8" opacity="1.000000" stroke="none" 
	d="
M842.824463,488.909973 
	C775.719910,488.877899 708.615295,488.849854 641.510742,488.797913 
	C639.022949,488.795990 635.593262,489.716217 637.363708,484.749146 
	C657.857605,484.524384 677.832214,484.569977 697.806885,484.588013 
	C746.244934,484.631744 794.683044,484.662659 843.121094,484.698730 
	C843.121094,484.698730 843.091980,484.872894 843.173584,485.288818 
	C843.111572,486.773132 842.968018,487.841553 842.824463,488.909973 
z"/>
<path fill="#F6F6F7" opacity="1.000000" stroke="none" 
	d="
M1333.096436,335.930054 
	C1333.093994,337.874542 1333.093994,339.357300 1333.093994,341.115631 
	C1312.713867,341.115631 1292.661499,341.115631 1272.287109,341.115631 
	C1272.287109,338.129059 1272.287109,335.258484 1272.287109,331.920105 
	C1280.597168,331.920105 1288.860474,331.919128 1297.123779,331.920349 
	C1307.929199,331.921967 1318.735840,332.019440 1329.538940,331.864227 
	C1332.366577,331.823639 1333.572388,332.619690 1333.096436,335.930054 
z"/>
<path fill="#24252F" opacity="1.000000" stroke="none" 
	d="
M842.998596,484.357666 
	C794.683044,484.662659 746.244934,484.631744 697.806885,484.588013 
	C677.832214,484.569977 657.857605,484.524384 637.483032,484.453003 
	C640.015076,483.630157 642.945129,482.169525 645.879089,482.161591 
	C697.137634,482.023651 748.396729,482.063843 799.655640,482.064819 
	C811.555664,482.065063 823.457520,481.953430 835.354248,482.151581 
	C837.871155,482.193481 840.369324,483.365356 842.998596,484.357666 
z"/>
<path fill="#F6F6F7" opacity="1.000000" stroke="none" 
	d="
M1302.000000,412.133484 
	C1291.880737,412.133270 1282.261353,412.133270 1272.309692,412.133270 
	C1272.309692,408.927185 1272.309692,406.058472 1272.309692,402.978394 
	C1292.412231,402.978394 1312.464478,402.978394 1332.829590,402.978394 
	C1332.829590,405.928131 1332.829590,408.798645 1332.829590,412.133698 
	C1322.673828,412.133698 1312.586914,412.133698 1302.000000,412.133484 
z"/>
<path fill="#F6F6F7" opacity="1.000000" stroke="none" 
	d="
M1297.448242,376.275909 
	C1288.866089,376.277435 1280.745239,376.277435 1272.342529,376.277435 
	C1272.342529,373.212646 1272.342529,370.461151 1272.342529,367.323273 
	C1291.066406,367.323273 1309.913574,367.323273 1329.024048,367.323273 
	C1329.024048,370.011475 1329.024048,372.789062 1329.024048,376.274384 
	C1318.679321,376.274384 1308.294312,376.274384 1297.448242,376.275909 
z"/>
<path fill="#E1E2E4" opacity="1.000000" stroke="none" 
	d="
M1526.138184,492.828552 
	C1526.134644,495.782166 1526.134644,498.264893 1526.134644,500.747620 
	C1525.605469,500.963440 1525.076294,501.179260 1524.547119,501.395081 
	C1524.018066,500.296265 1523.056152,499.207184 1523.031250,498.096985 
	C1522.885742,491.625275 1522.959839,485.148560 1522.959839,478.673523 
	C1522.504883,478.498627 1522.049927,478.323730 1521.594971,478.148804 
	C1519.029907,482.402588 1516.583130,486.734650 1513.844727,490.873749 
	C1512.655884,492.670776 1510.867065,494.070801 1509.350830,495.651245 
	C1507.854614,494.052765 1506.085693,492.630341 1504.916748,490.820465 
	C1502.146240,486.531097 1499.660278,482.057861 1495.851196,477.845154 
	C1495.851196,482.035126 1496.155762,486.254181 1495.758667,490.406189 
	C1495.416626,493.983887 1497.280396,498.182068 1492.997559,501.008270 
	C1492.997559,490.795532 1492.997559,480.582825 1492.997559,468.917297 
	C1495.086914,470.459930 1496.999268,471.225616 1497.882568,472.635895 
	C1501.753540,478.815918 1505.326660,485.182526 1509.069092,491.586304 
	C1515.462158,484.796692 1517.191528,474.988068 1524.492310,469.416656 
	C1525.042114,469.647552 1525.591797,469.878448 1526.141602,470.109344 
	C1526.141602,477.525482 1526.141602,484.941589 1526.138184,492.828552 
z"/>
<path fill="#D3D5D8" opacity="1.000000" stroke="none" 
	d="
M996.554321,470.817688 
	C1003.434692,470.176605 1010.215942,469.545685 1016.928772,469.977661 
	C1018.825989,470.099731 1021.790100,473.166443 1022.048462,475.168610 
	C1022.586060,479.335052 1024.121948,484.313141 1019.316895,487.471954 
	C1018.385132,488.084534 1017.254211,488.394226 1015.652832,489.086792 
	C1018.035278,492.996826 1020.323364,496.751953 1022.611450,500.507080 
	C1022.422485,500.889221 1022.233521,501.271332 1022.044556,501.653473 
	C1020.559326,500.819458 1018.975464,500.116211 1017.627869,499.099701 
	C1016.886353,498.540405 1016.367371,497.515289 1016.046448,496.596008 
	C1013.301575,488.734528 1007.467712,487.606506 999.654175,489.485229 
	C999.654175,492.180206 999.820374,495.135773 999.570618,498.055786 
	C999.473755,499.188660 998.436646,500.241150 997.827820,501.330261 
	C997.346863,500.280487 996.460083,499.235046 996.448730,498.180206 
	C996.352112,489.198029 996.414490,480.214142 996.554321,470.817688 
M1017.774902,484.245819 
	C1021.497253,476.652069 1019.364746,472.702362 1011.391479,472.533112 
	C1007.650269,472.453674 1003.906006,472.519531 1000.069214,472.519531 
	C1000.069214,477.162109 1000.069214,481.332458 1000.069214,486.206116 
	C1006.050171,485.719513 1011.585327,485.269196 1017.774902,484.245819 
z"/>
<path fill="#E5E6E8" opacity="1.000000" stroke="none" 
	d="
M1434.908203,501.209473 
	C1434.010254,500.568665 1433.002197,499.894836 1432.994751,499.210236 
	C1432.891602,489.607666 1432.924805,480.003632 1432.924805,469.732910 
	C1439.918579,469.732910 1446.708618,469.285706 1453.375366,469.996185 
	C1455.467896,470.219177 1458.510864,473.344696 1458.866455,475.511383 
	C1459.547119,479.657898 1460.733887,484.639923 1455.931030,487.725555 
	C1454.985840,488.332764 1453.887085,488.701019 1452.546753,489.324982 
	C1454.836670,493.160248 1457.024780,496.825012 1459.212891,500.489807 
	C1459.047607,500.867096 1458.882446,501.244385 1458.717163,501.621674 
	C1457.302368,500.884094 1455.747559,500.322937 1454.520996,499.348450 
	C1453.667603,498.670349 1453.079224,497.492249 1452.690430,496.421967 
	C1449.837646,488.569061 1443.921387,487.657471 1436.772339,489.300964 
	C1436.270630,493.248596 1435.767090,497.210022 1434.908203,501.209473 
M1436.206665,476.763672 
	C1436.206665,479.694702 1436.206665,482.625732 1436.206665,485.749237 
	C1441.570190,485.749237 1446.374634,485.975037 1451.147827,485.687134 
	C1456.132202,485.386475 1455.803101,481.527191 1455.842529,477.920807 
	C1455.880249,474.460205 1454.411865,472.520233 1450.934204,472.427979 
	C1446.945801,472.322174 1442.930054,472.162598 1438.976807,472.546844 
	C1437.956787,472.645966 1437.126221,474.695465 1436.206665,476.763672 
z"/>
<path fill="#E1E2E4" opacity="1.000000" stroke="none" 
	d="
M1399.219727,478.599762 
	C1399.214355,483.697174 1399.284424,488.363373 1399.178345,493.025543 
	C1399.056030,498.393066 1395.682861,501.591553 1390.348145,501.597870 
	C1386.350586,501.602600 1382.351685,501.679871 1378.355835,501.600616 
	C1373.164917,501.497681 1369.972900,498.350708 1369.883057,493.209229 
	C1369.792969,488.046631 1369.788696,482.880341 1369.871948,477.717651 
	C1369.945312,473.163422 1373.122681,470.048462 1377.781860,469.937103 
	C1381.944214,469.837616 1386.110596,469.909332 1390.275146,469.891602 
	C1395.976562,469.867371 1398.390869,472.095490 1399.219727,478.599762 
M1376.136108,498.117218 
	C1381.103516,498.274536 1386.082886,498.705078 1391.034058,498.489563 
	C1394.147461,498.354095 1396.135742,496.324951 1396.115601,492.861786 
	C1396.086548,487.865845 1396.555786,482.811279 1395.902832,477.902710 
	C1395.650391,476.005341 1393.118530,473.286438 1391.265137,472.954926 
	C1387.068604,472.204254 1382.646729,472.631744 1378.319336,472.719208 
	C1374.648315,472.793365 1372.996216,474.786377 1373.074463,478.474426 
	C1373.173462,483.135162 1372.873291,487.813629 1373.178223,492.456024 
	C1373.293579,494.214722 1374.614258,495.894287 1376.136108,498.117218 
z"/>
<path fill="#D3D5D8" opacity="1.000000" stroke="none" 
	d="
M1096.478149,490.069916 
	C1095.549316,492.208679 1095.031738,494.302124 1094.697266,496.424438 
	C1094.438843,498.063995 1094.409912,499.739746 1093.196533,501.394562 
	C1091.103516,491.047394 1092.193481,480.610229 1091.616943,469.718109 
	C1098.494507,469.718109 1104.920288,469.695007 1111.345337,469.747894 
	C1112.131104,469.754364 1112.973145,470.050507 1113.687500,470.412750 
	C1117.617554,472.405823 1119.312744,477.857635 1117.686523,484.181335 
	C1116.628540,488.295837 1113.494873,489.862854 1109.411011,489.876068 
	C1105.263306,489.889526 1101.115723,489.980164 1096.478149,490.069916 
M1110.903931,486.910614 
	C1116.137939,484.881134 1114.713989,480.369415 1114.193970,476.686188 
	C1113.983276,475.193359 1111.523438,473.066010 1109.915283,472.900818 
	C1105.048218,472.400818 1100.096802,472.720062 1094.938232,472.720062 
	C1094.938232,477.672028 1094.938232,482.215332 1094.938232,487.052216 
	C1100.126465,487.052216 1105.062622,487.052216 1110.903931,486.910614 
z"/>
<path fill="#E1E2E4" opacity="1.000000" stroke="none" 
	d="
M1205.415771,487.142975 
	C1207.677734,482.097443 1209.676636,477.346008 1211.910034,472.707397 
	C1212.467651,471.549530 1213.737183,470.058533 1214.759399,469.994446 
	C1215.739136,469.932983 1217.267700,471.316132 1217.790527,472.424957 
	C1222.175415,481.722626 1226.384033,491.103516 1230.645630,500.459320 
	C1230.292847,500.839325 1229.940063,501.219330 1229.587280,501.599335 
	C1228.555420,500.728729 1226.878052,500.025940 1226.600708,498.959167 
	C1225.223389,493.661438 1221.696899,492.443176 1216.850220,493.079590 
	C1215.540649,493.251526 1214.169067,493.247437 1212.859985,493.071411 
	C1208.236694,492.449707 1204.832764,493.465790 1203.598389,498.672058 
	C1203.306030,499.904846 1201.572876,500.796112 1200.502563,501.844482 
	C1200.067993,501.503418 1199.633301,501.162354 1199.198730,500.821289 
	C1201.212280,496.373779 1203.225830,491.926300 1205.415771,487.142975 
M1218.304932,490.430054 
	C1219.532471,490.308350 1220.759888,490.186646 1222.606689,490.003540 
	C1219.941162,484.220520 1217.512451,478.951477 1214.785400,473.035095 
	C1212.140137,479.206360 1209.886597,484.463593 1207.327515,490.433899 
	C1211.158447,490.433899 1214.263306,490.433899 1218.304932,490.430054 
z"/>
<path fill="#E1E2E4" opacity="1.000000" stroke="none" 
	d="
M923.192078,490.644714 
	C924.706604,494.173279 926.086792,497.348022 927.466980,500.522736 
	C927.109680,500.885040 926.752380,501.247345 926.395142,501.609650 
	C925.315186,500.594482 923.630188,499.760315 923.262634,498.531982 
	C921.862366,493.851593 918.839172,492.440918 914.302917,493.063019 
	C912.669739,493.286926 910.959229,493.276093 909.321228,493.072571 
	C905.015137,492.537598 901.991699,493.634979 900.784851,498.328400 
	C900.455017,499.611176 898.779053,500.547821 897.720825,501.643341 
	C897.283508,501.310547 896.846130,500.977753 896.408752,500.644958 
	C900.083496,492.408783 903.649109,484.121033 907.502502,475.969330 
	C908.593262,473.661804 910.524414,471.751556 912.070190,469.659119 
	C913.492493,471.727264 915.158325,473.671448 916.286865,475.889099 
	C918.691589,480.614471 920.817566,485.481781 923.192078,490.644714 
M914.649719,478.917908 
	C913.760498,477.249115 912.871338,475.580322 911.714722,473.409698 
	C909.132385,479.309937 906.848572,484.528076 904.424438,490.066772 
	C909.660339,490.066772 914.275024,490.066772 919.466309,490.066772 
	C917.796143,486.217316 916.365662,482.920258 914.649719,478.917908 
z"/>
<path fill="#E5E6E8" opacity="1.000000" stroke="none" 
	d="
M1316.088623,473.387695 
	C1316.767822,471.900909 1317.421997,469.993958 1318.127930,469.974640 
	C1325.108276,469.783356 1332.097656,469.883942 1339.082886,469.994415 
	C1339.467529,470.000488 1339.839355,470.825073 1341.085083,472.287628 
	C1333.277954,472.287628 1326.473267,472.287628 1319.471680,472.287628 
	C1319.471680,476.707123 1319.471680,480.292847 1319.471680,484.851013 
	C1325.604492,484.851013 1331.698730,484.851013 1337.792969,484.851013 
	C1337.817017,485.524231 1337.841064,486.197449 1337.864990,486.870667 
	C1331.849854,486.870667 1325.834717,486.870667 1319.214233,486.870667 
	C1319.214233,491.328186 1319.327637,494.768890 1319.145874,498.193970 
	C1319.090698,499.234253 1318.220825,500.231293 1317.724121,501.248138 
	C1317.203491,500.265533 1316.248779,499.290680 1316.230957,498.299042 
	C1316.084717,490.148956 1316.112549,481.995758 1316.088623,473.387695 
z"/>
<path fill="#E1E2E4" opacity="1.000000" stroke="none" 
	d="
M1264.156738,469.830688 
	C1271.112305,469.927826 1277.593384,470.026733 1284.074341,470.125641 
	C1284.067261,470.822601 1284.060303,471.519562 1284.053223,472.216492 
	C1280.226196,472.389679 1276.399170,472.562866 1271.965454,472.763489 
	C1271.965454,480.975189 1272.038696,489.217621 1271.890015,497.456024 
	C1271.866455,498.759583 1270.841431,500.045013 1270.279419,501.338837 
	C1269.720337,500.053223 1268.701050,498.776031 1268.677368,497.480591 
	C1268.528564,489.394012 1268.602173,481.303345 1268.602173,472.923615 
	C1264.200928,472.690948 1260.102417,472.474304 1256.003784,472.257660 
	C1256.008667,471.526245 1256.013550,470.794800 1256.018433,470.063385 
	C1258.572998,469.986420 1261.127563,469.909424 1264.156738,469.830688 
z"/>
<path fill="#020517" opacity="1.000000" stroke="none" 
	d="
M474.979065,514.801819 
	C474.518524,508.922852 474.314240,502.787018 474.310089,496.651093 
	C474.266937,433.100616 474.252655,369.550171 474.258240,305.999695 
	C474.258362,304.540955 474.584595,303.082214 475.228455,301.421021 
	C475.799164,303.379395 475.987915,305.540161 475.988434,307.700989 
	C476.004028,374.698608 476.006897,441.696259 475.973022,508.693878 
	C475.972015,510.644318 475.552582,512.594604 474.979065,514.801819 
z"/>
<path fill="#E5E6E8" opacity="1.000000" stroke="none" 
	d="
M1149.609863,497.550415 
	C1149.615356,489.778595 1149.506714,482.454193 1149.699829,475.137787 
	C1149.747192,473.339661 1150.779053,471.567505 1151.358398,469.783386 
	C1151.861572,471.646271 1152.757080,473.500336 1152.799194,475.373566 
	C1152.966919,482.825348 1152.868286,490.283142 1152.868286,498.664246 
	C1159.643555,498.664246 1165.935669,498.664246 1172.227661,498.664246 
	C1172.294678,499.187225 1172.361572,499.710236 1172.428589,500.233215 
	C1171.555908,500.605713 1170.689697,501.282410 1169.809448,501.301178 
	C1164.153931,501.422028 1158.489258,501.249207 1152.840576,501.485962 
	C1150.030396,501.603760 1149.281982,500.465088 1149.609863,497.550415 
z"/>
<path fill="#D3D5D8" opacity="1.000000" stroke="none" 
	d="
M960.117676,501.450439 
	C959.237976,500.023102 958.375427,498.605896 958.354004,497.176025 
	C958.234497,489.219910 958.243530,481.259125 958.410828,473.304199 
	C958.437622,472.029022 959.484863,470.775269 960.060425,469.511627 
	C960.668396,469.716492 961.276367,469.921326 961.884338,470.126190 
	C961.884338,480.170319 961.900085,490.214569 961.826843,500.258148 
	C961.823914,500.660187 960.976990,501.056030 960.117676,501.450439 
z"/>
<path fill="#24252F" opacity="1.000000" stroke="none" 
	d="
M843.164185,488.891968 
	C842.968018,487.841553 843.111572,486.773132 843.261353,485.297974 
	C843.346436,486.218781 843.425171,487.546326 843.164185,488.891968 
z"/>
<path fill="#030618" opacity="1.000000" stroke="none" 
	d="
M430.775024,484.215332 
	C418.705536,471.982635 406.857727,460.029449 395.116791,447.972198 
	C393.970856,446.795380 392.802032,444.981171 392.792847,443.455933 
	C392.654633,420.461395 392.678925,397.465546 392.788788,374.470612 
	C392.795807,372.999298 393.416931,371.140320 394.421539,370.121582 
	C417.696564,346.519470 441.064423,323.008789 464.068420,299.830383 
	C469.283386,300.280426 470.010498,302.908936 470.002869,306.990143 
	C469.875610,374.814941 469.866425,442.640076 470.013153,510.464783 
	C470.022247,514.665161 468.971039,517.067993 463.759949,517.961182 
	C453.134064,507.087952 442.080322,495.776855 430.775024,484.215332 
z"/>
<path fill="#020517" opacity="1.000000" stroke="none" 
	d="
M160.816833,305.196716 
	C161.683167,303.392487 162.278702,301.500061 163.498764,300.919037 
	C164.519012,300.433167 166.725250,301.021149 167.630417,301.917297 
	C190.364120,324.425110 213.019836,347.012115 235.576340,369.697479 
	C236.805115,370.933319 237.656143,373.139893 237.667343,374.901062 
	C237.811600,397.565552 237.831360,420.231689 237.662354,442.895752 
	C237.648834,444.708282 236.408844,446.905670 235.066422,448.255493 
	C212.975891,470.467468 190.713730,492.509094 168.685196,514.781921 
	C165.995239,517.501709 163.991730,517.771912 160.816544,515.290588 
	C160.816544,445.630157 160.816544,375.653320 160.816833,305.196716 
z"/>
<path fill="#030618" opacity="1.000000" stroke="none" 
	d="
M400.572418,325.018982 
	C398.008881,326.505798 396.216492,327.208252 393.499634,325.363007 
	C389.310333,322.517639 385.224091,324.444733 381.961395,327.583466 
	C363.351410,319.091644 345.003632,310.787537 326.754456,302.272095 
	C325.175049,301.535126 324.155914,299.466614 323.044342,297.897675 
	C322.096466,296.559814 321.719330,294.256500 320.518433,293.758850 
	C316.006256,291.888947 316.713013,288.280396 316.727570,284.704559 
	C316.792023,268.873810 316.830536,253.042725 316.796387,237.211960 
	C316.788452,233.536087 316.347443,229.945480 321.128296,228.551529 
	C322.346344,228.196350 323.152313,226.427979 324.443054,224.976761 
	C334.095367,229.428452 343.565460,233.789841 353.030334,238.162476 
	C386.852997,253.787979 420.674561,269.415802 454.492950,285.050537 
	C455.849884,285.677887 457.449982,286.111420 458.436127,287.123199 
	C459.626038,288.344055 460.928711,290.070190 460.967285,291.608124 
	C460.999634,292.896484 459.578308,294.793701 458.300232,295.456665 
	C439.228912,305.349091 420.074341,315.081024 400.572418,325.018982 
z"/>
<path fill="#030618" opacity="1.000000" stroke="none" 
	d="
M298.114197,304.202332 
	C282.211792,311.556976 266.686096,318.824097 251.059677,325.867828 
	C249.621964,326.515900 247.543167,325.675995 245.759674,325.637573 
	C242.763306,325.573029 239.765015,325.585358 236.767548,325.588898 
	C235.134872,325.590820 233.204681,326.231659 231.914200,325.581238 
	C212.155563,315.622986 192.452698,305.552155 172.840607,295.308868 
	C171.341873,294.526062 170.023773,292.346130 169.752365,290.636169 
	C169.573029,289.506104 171.125854,287.433044 172.397415,286.837585 
	C216.353241,266.252136 260.368073,245.792679 304.174561,225.408249 
	C306.762268,227.169205 309.159912,228.575119 311.255249,230.339935 
	C312.071899,231.027756 312.590668,232.521835 312.596588,233.652054 
	C312.692261,251.967209 312.686615,270.282898 312.687805,288.598480 
	C312.687836,289.416931 312.783173,290.808960 312.415405,290.968475 
	C306.179626,293.672913 306.622101,303.482086 298.114197,304.202332 
z"/>
<path fill="#030618" opacity="1.000000" stroke="none" 
	d="
M316.792542,545.000000 
	C316.806030,540.167603 316.819855,535.835205 316.830872,531.502808 
	C316.840210,527.827759 315.820404,523.810303 320.874054,522.158386 
	C321.857971,521.836792 322.974243,520.083313 322.993225,518.972595 
	C323.065552,514.739319 326.025330,513.626038 329.156006,512.307800 
	C345.729492,505.329315 362.281555,498.299042 378.795502,491.181122 
	C381.110077,490.183441 382.619141,490.335815 385.019684,491.594238 
	C387.421448,492.853302 391.352386,493.056091 393.772461,491.924377 
	C396.483185,490.656860 398.168427,490.867065 400.516510,492.086548 
	C419.575989,501.985138 438.701233,511.757202 457.733826,521.706787 
	C459.176849,522.461182 460.964600,524.290405 460.956055,525.609314 
	C460.947113,526.983398 459.234192,528.962280 457.786774,529.617432 
	C440.221588,537.568726 422.559631,545.305969 404.938904,553.135010 
	C379.999817,564.215637 355.076324,575.331238 330.141052,586.420471 
	C324.900513,588.750977 320.841522,588.163330 317.576080,584.222168 
	C316.778534,583.259583 316.839081,581.427490 316.831879,579.993530 
	C316.774170,568.495911 316.794922,556.997864 316.792542,545.000000 
z"/>
<path fill="#040719" opacity="1.000000" stroke="none" 
	d="
M248.118073,490.674072 
	C266.214905,498.270111 283.923615,505.975616 301.647949,513.644897 
	C304.087036,514.700317 306.566498,515.439514 306.636932,518.910095 
	C306.659729,520.035522 307.713409,521.760010 308.705841,522.140625 
	C313.539825,523.994507 312.662903,527.958740 312.652100,531.668396 
	C312.611725,545.494751 312.384827,559.324341 312.618622,573.146057 
	C312.731323,579.806824 313.330750,586.275879 304.253662,588.809692 
	C288.904144,581.877258 272.705994,574.487061 256.446472,567.234558 
	C228.669830,554.844849 200.838028,542.578369 173.099686,530.103882 
	C171.533691,529.399597 169.850021,527.390015 169.623322,525.789368 
	C169.453598,524.591003 171.252441,522.514893 172.667984,521.781372 
	C191.581680,511.980560 210.592880,502.368073 229.549728,492.650024 
	C232.290802,491.244812 234.525558,490.216370 237.676224,492.453094 
	C241.072891,494.864441 244.690048,493.278015 248.118073,490.674072 
z"/>
<path fill="#030618" opacity="1.000000" stroke="none" 
	d="
M347.999512,439.847351 
	C342.838623,439.828186 338.037811,439.092133 333.549957,439.965118 
	C327.253235,441.189972 324.349579,436.948669 320.821167,433.563019 
	C320.075165,432.847198 320.120209,431.113098 320.116486,429.847229 
	C320.074280,415.530975 320.078491,401.214508 320.105896,386.898163 
	C320.113922,382.711975 325.222870,377.285034 329.297699,377.270905 
	C343.780365,377.220795 358.263397,377.242157 372.746185,377.284241 
	C375.885254,377.293365 380.310486,381.906250 380.319397,385.314423 
	C380.359039,400.462921 380.350494,415.611938 380.251190,430.760101 
	C380.222198,435.181152 375.342926,439.730713 370.972626,439.748993 
	C363.481506,439.780334 355.990387,439.815155 347.999512,439.847351 
z"/>
<path fill="#040718" opacity="1.000000" stroke="none" 
	d="
M266.060699,439.776886 
	C262.579071,439.774811 259.586090,439.774811 257.214294,439.774811 
	C255.203781,437.635315 253.423706,435.982819 251.964432,434.083771 
	C251.259827,433.166809 250.837631,431.787445 250.832855,430.615234 
	C250.771820,415.641632 250.791290,400.667603 250.839905,385.693817 
	C250.848450,383.061462 256.293701,377.328247 258.931549,377.315491 
	C273.239380,377.246399 287.547913,377.239441 301.855682,377.316589 
	C304.555481,377.331146 309.549774,382.792786 309.565674,385.684875 
	C309.647949,400.658264 309.687958,415.632446 309.620361,430.605743 
	C309.604431,434.130219 303.457855,439.799194 299.991058,439.800659 
	C288.843842,439.805389 277.696594,439.787903 266.060699,439.776886 
z"/>
<path fill="#040718" opacity="1.000000" stroke="none" 
	d="
M359.623840,321.263428 
	C365.858215,324.130554 371.810577,326.717438 377.603912,329.621552 
	C378.914795,330.278656 380.287689,331.946655 380.492004,333.319061 
	C380.656647,334.424805 379.400238,336.314728 378.265411,336.955688 
	C360.909027,346.758057 343.484375,356.440186 326.033508,366.074066 
	C323.039368,367.726959 316.797516,363.990173 316.785797,360.561127 
	C316.728302,343.753204 316.718018,326.944763 316.798706,310.136993 
	C316.816193,306.494720 321.414612,303.793274 324.790161,305.324463 
	C336.304077,310.547302 347.788574,315.835052 359.623840,321.263428 
z"/>
<path fill="#06091A" opacity="1.000000" stroke="none" 
	d="
M312.631592,313.859253 
	C312.655792,329.455353 312.691010,344.591187 312.692627,359.727051 
	C312.693115,364.334717 306.829163,367.793213 302.779205,365.539978 
	C286.095856,356.257904 269.407349,346.983917 252.819946,337.532837 
	C251.438416,336.745667 250.037079,334.661469 250.030991,333.174194 
	C250.025116,331.743134 251.496201,329.618530 252.870041,328.973358 
	C270.916840,320.498260 289.061493,312.231476 307.041016,303.977020 
	C310.836823,306.193420 313.847504,308.576233 312.631592,313.859253 
z"/>
<path fill="#040718" opacity="1.000000" stroke="none" 
	d="
M374.939270,488.997925 
	C357.284180,496.546417 339.995117,503.960358 323.017365,511.240814 
	C317.067078,509.405640 316.607727,505.144257 316.705292,499.972412 
	C316.987885,484.992798 316.805328,470.004364 316.805328,455.093231 
	C319.413055,453.415466 321.871063,451.834045 324.309143,450.265411 
	C341.422150,459.729736 358.603577,469.157654 375.679047,478.773743 
	C377.706451,479.915497 380.098450,481.816528 380.673431,483.835052 
	C381.836090,487.916718 377.340240,487.364960 374.939270,488.997925 
z"/>
<path fill="#06091A" opacity="1.000000" stroke="none" 
	d="
M284.937378,461.923523 
	C291.885864,457.962860 298.507172,454.169983 304.601196,450.679138 
	C312.370941,452.432434 313.007355,457.494598 312.758423,463.838501 
	C312.295654,475.630890 312.412598,487.457825 312.678040,499.261627 
	C312.795990,504.506805 312.724792,509.203094 305.920044,511.460175 
	C293.551270,506.117828 280.327667,500.413849 267.111145,494.693481 
	C262.533325,492.712158 257.892639,490.848999 253.450211,488.597290 
	C251.972076,487.848083 250.072845,486.054169 250.073837,484.739166 
	C250.075073,483.112152 251.465210,480.821899 252.927170,479.966675 
	C263.392365,473.844421 274.028473,468.014282 284.937378,461.923523 
z"/>
<path fill="#080A1A" opacity="1.000000" stroke="none" 
	d="
M345.941071,458.076508 
	C326.260437,447.006561 326.260437,447.006561 326.356140,443.176971 
	C332.585693,443.176971 338.850861,443.169556 345.116058,443.178864 
	C352.780121,443.190216 360.444458,443.185974 368.108185,443.247406 
	C371.963776,443.278320 375.717346,442.666260 379.101257,446.084167 
	C380.596863,447.594757 384.305756,446.914032 387.829651,447.323303 
	C387.892700,448.555695 388.073090,450.423767 388.068359,452.291382 
	C388.052368,458.622070 387.988922,464.952789 387.909088,471.283112 
	C387.833252,477.295624 384.264801,479.449188 378.927460,476.511841 
	C367.999725,470.498016 357.150757,464.341034 345.941071,458.076508 
z"/>
<path fill="#0A0C1A" opacity="1.000000" stroke="none" 
	d="
M250.535492,447.070007 
	C255.722244,442.189880 261.831299,443.238190 267.677887,443.222321 
	C279.475677,443.190338 291.273651,443.212799 304.493225,443.212799 
	C303.480225,445.148071 303.152985,446.975769 302.115662,447.575714 
	C284.725677,457.633606 267.259979,467.561066 249.773117,477.450317 
	C247.371170,478.808716 242.448563,476.785339 242.438583,474.312531 
	C242.401749,465.193054 242.693130,456.072083 242.894684,446.952454 
	C242.900208,446.701874 243.286880,446.459717 243.500702,446.217804 
	C245.713089,446.531647 247.920639,446.841309 250.535492,447.070007 
z"/>
<path fill="#06091A" opacity="1.000000" stroke="none" 
	d="
M382.851715,339.197662 
	C384.684235,340.391907 386.186646,341.406891 387.707184,342.434113 
	C387.707184,351.634827 387.707184,360.900787 387.707184,370.764191 
	C383.101288,368.900848 379.316437,369.330078 376.347443,373.195129 
	C375.888275,373.792847 374.570312,373.939545 373.648468,373.942108 
	C358.006470,373.985535 342.364349,373.973206 324.892975,373.973206 
	C326.630768,371.580322 327.269989,369.826691 328.505157,369.130585 
	C346.463806,359.010101 364.502258,349.031189 382.851715,339.197662 
z"/>
<path fill="#080A1A" opacity="1.000000" stroke="none" 
	d="
M294.812805,365.152527 
	C297.449585,366.634705 299.878723,367.784851 302.008942,369.343567 
	C303.112122,370.150787 303.685608,371.681915 305.201538,373.927643 
	C288.417328,373.927643 273.300140,373.940887 258.183105,373.895264 
	C257.261780,373.892456 256.185730,373.648010 255.445938,373.134979 
	C249.546478,369.043701 249.566040,369.015503 243.276993,371.155945 
	C242.998581,369.566040 242.528488,368.075256 242.511139,366.579254 
	C242.428253,359.429749 242.436005,352.278625 242.475937,345.128448 
	C242.501770,340.501984 246.674255,337.993896 250.686203,340.248383 
	C265.303223,348.462311 279.885712,356.737671 294.812805,365.152527 
z"/>
<path fill="#080A1A" opacity="1.000000" stroke="none" 
	d="
M173.468628,300.297119 
	C192.338242,309.800568 211.207916,319.303894 230.076981,328.808411 
	C230.522186,329.032654 231.366577,329.325928 231.343643,329.494080 
	C230.326736,336.951324 239.645630,339.811584 239.037628,347.289551 
	C238.518463,353.675079 238.930252,360.136292 238.930252,367.491028 
	C216.552124,345.152985 194.827988,323.467773 173.143646,301.266449 
	C173.278519,300.599274 173.373581,300.448212 173.468628,300.297119 
z"/>
<path fill="#0A0C1A" opacity="1.000000" stroke="none" 
	d="
M174.791336,514.761292 
	C190.215439,499.143860 205.657364,483.543945 221.054260,467.899750 
	C226.643951,462.220306 232.126099,456.434998 237.657288,450.697968 
	C238.083633,450.872681 238.509979,451.047424 238.936325,451.222137 
	C238.936325,458.920227 240.400925,467.031006 238.391327,474.162842 
	C237.170471,478.495514 231.937927,482.066040 231.422318,487.647034 
	C231.399261,487.896576 230.565689,488.059570 230.119919,488.283356 
	C212.133881,497.313171 194.149063,506.345367 175.650421,515.263611 
	C175.021637,515.020386 174.906494,514.890869 174.791336,514.761292 
z"/>
<path fill="#0A0C1A" opacity="1.000000" stroke="none" 
	d="
M456.336182,302.332764 
	C434.776398,323.330872 413.216644,344.328949 391.880188,365.109558 
	C391.880188,358.628265 391.849274,350.953949 391.934845,343.280914 
	C391.942261,342.617126 392.606567,341.842651 393.156952,341.321411 
	C398.117035,336.623657 398.129578,336.636902 398.169006,330.377625 
	C416.942017,320.849335 435.889252,311.232635 455.374817,301.755676 
	C456.054169,302.041199 456.195160,302.187012 456.336182,302.332764 
z"/>
<path fill="#0A0C1A" opacity="1.000000" stroke="none" 
	d="
M455.861511,516.154724 
	C437.364471,506.741302 418.865814,497.330994 400.376312,487.902802 
	C399.656952,487.536011 398.405151,486.932739 398.445526,486.549713 
	C399.007721,481.217621 396.188110,477.876221 392.131775,475.137360 
	C391.868927,474.959900 391.964081,474.190063 391.963470,473.695709 
	C391.954376,466.299194 391.957184,458.902710 391.957184,450.583771 
	C413.780518,472.427612 434.986176,493.653137 456.211090,515.320068 
	C456.107391,515.892578 455.984436,516.023682 455.861511,516.154724 
z"/>
<path fill="#24252F" opacity="1.000000" stroke="none" 
	d="
M241.298447,437.483612 
	C241.289261,416.991547 241.289261,396.934570 241.289261,376.981842 
	C249.329254,381.731812 247.555573,389.419189 247.583511,396.529968 
	C247.625366,407.179291 247.539032,417.829193 247.601379,428.478333 
	C247.618195,431.352692 247.720657,433.809753 244.557907,435.609619 
	C243.093872,436.442780 242.727097,439.204010 241.745758,441.346832 
	C241.599411,440.201721 241.453522,439.060242 241.298447,437.483612 
z"/>
<path fill="#0A0C1A" opacity="1.000000" stroke="none" 
	d="
M384.020630,411.999878 
	C384.009186,403.683502 384.280975,395.852478 383.876556,388.056580 
	C383.665497,383.988220 385.064819,381.646576 388.890015,380.060486 
	C388.890015,398.948883 388.890015,417.654358 388.890015,436.611176 
	C385.159027,434.818024 383.605469,432.221802 383.941925,427.958801 
	C384.346252,422.835571 384.028412,417.655365 384.020630,411.999878 
z"/>
<path fill="#24252F" opacity="1.000000" stroke="none" 
	d="
M313.059113,401.001740 
	C313.058472,395.046631 313.058472,389.591156 313.058472,384.135712 
	C313.558777,383.900360 314.059052,383.665009 314.559357,383.429626 
	C315.284088,384.556152 316.627380,385.676025 316.639587,386.810211 
	C316.791595,400.929901 316.795929,415.052124 316.676880,429.172272 
	C316.666718,430.375427 315.503204,431.568848 314.875458,432.766754 
	C314.270233,432.563782 313.664978,432.360809 313.059753,432.157837 
	C313.059753,421.939026 313.059753,411.720215 313.059113,401.001740 
z"/>
<path fill="#0A0C1A" opacity="1.000000" stroke="none" 
	d="
M175.302917,515.349976 
	C174.747177,515.579712 174.025330,515.609436 173.303467,515.639099 
	C173.594513,515.381348 173.885574,515.123596 174.483978,514.813599 
	C174.906494,514.890869 175.021637,515.020386 175.302917,515.349976 
z"/>
<path fill="#0A0C1A" opacity="1.000000" stroke="none" 
	d="
M456.423004,515.572876 
	C457.086456,515.777405 457.557281,516.170532 458.808014,517.214905 
	C457.300934,516.917053 456.752930,516.808716 456.033203,516.427612 
	C455.984436,516.023682 456.107391,515.892578 456.423004,515.572876 
z"/>
<path fill="#080A1A" opacity="1.000000" stroke="none" 
	d="
M173.014526,300.958069 
	C172.271927,301.005371 171.698273,300.844971 169.912521,300.345581 
	C171.733063,300.189392 172.307816,300.140106 173.175598,300.193970 
	C173.373581,300.448212 173.278519,300.599274 173.014526,300.958069 
z"/>
<path fill="#0A0C1A" opacity="1.000000" stroke="none" 
	d="
M455.715027,301.664490 
	C455.935272,301.623413 456.353607,301.813232 456.554077,302.167908 
	C456.195160,302.187012 456.054169,302.041199 455.715027,301.664490 
z"/>
<path fill="#06091A" opacity="1.000000" stroke="none" 
	d="
M992.536621,373.999146 
	C992.514832,367.339935 992.369568,361.178650 992.478455,355.021881 
	C992.640198,345.881989 997.382263,341.342438 1006.538269,341.337341 
	C1014.695862,341.332764 1022.853455,341.327667 1031.010986,341.360199 
	C1039.704224,341.394867 1044.340942,345.698975 1044.521240,354.469147 
	C1044.770752,366.618011 1044.771973,378.774445 1044.698120,390.926544 
	C1044.656372,397.817474 1039.812012,402.645813 1032.522949,402.828857 
	C1023.039551,403.067017 1013.542053,403.036774 1004.057251,402.825806 
	C997.153198,402.672272 992.661316,397.822540 992.589111,390.979340 
	C992.531250,385.486298 992.544922,379.992523 992.536621,373.999146 
z"/>
<path fill="#0F1122" opacity="1.000000" stroke="none" 
	d="
M1017.447693,484.532349 
	C1011.585327,485.269196 1006.050171,485.719513 1000.069214,486.206116 
	C1000.069214,481.332458 1000.069214,477.162109 1000.069214,472.519531 
	C1003.906006,472.519531 1007.650269,472.453674 1011.391479,472.533112 
	C1019.364746,472.702362 1021.497253,476.652069 1017.447693,484.532349 
z"/>
<path fill="#0F1122" opacity="1.000000" stroke="none" 
	d="
M1436.207642,476.306335 
	C1437.126221,474.695465 1437.956787,472.645966 1438.976807,472.546844 
	C1442.930054,472.162598 1446.945801,472.322174 1450.934204,472.427979 
	C1454.411865,472.520233 1455.880249,474.460205 1455.842529,477.920807 
	C1455.803101,481.527191 1456.132202,485.386475 1451.147827,485.687134 
	C1446.374634,485.975037 1441.570190,485.749237 1436.206665,485.749237 
	C1436.206665,482.625732 1436.206665,479.694702 1436.207642,476.306335 
z"/>
<path fill="#080A1A" opacity="1.000000" stroke="none" 
	d="
M1375.760864,497.863586 
	C1374.614258,495.894287 1373.293579,494.214722 1373.178223,492.456024 
	C1372.873291,487.813629 1373.173462,483.135162 1373.074463,478.474426 
	C1372.996216,474.786377 1374.648315,472.793365 1378.319336,472.719208 
	C1382.646729,472.631744 1387.068604,472.204254 1391.265137,472.954926 
	C1393.118530,473.286438 1395.650391,476.005341 1395.902832,477.902710 
	C1396.555786,482.811279 1396.086548,487.865845 1396.115601,492.861786 
	C1396.135742,496.324951 1394.147461,498.354095 1391.034058,498.489563 
	C1386.082886,498.705078 1381.103516,498.274536 1375.760864,497.863586 
z"/>
<path fill="#0F1122" opacity="1.000000" stroke="none" 
	d="
M1110.451416,486.981415 
	C1105.062622,487.052216 1100.126465,487.052216 1094.938232,487.052216 
	C1094.938232,482.215332 1094.938232,477.672028 1094.938232,472.720062 
	C1100.096802,472.720062 1105.048218,472.400818 1109.915283,472.900818 
	C1111.523438,473.066010 1113.983276,475.193359 1114.193970,476.686188 
	C1114.713989,480.369415 1116.137939,484.881134 1110.451416,486.981415 
z"/>
<path fill="#0F1122" opacity="1.000000" stroke="none" 
	d="
M1217.836548,490.431976 
	C1214.263306,490.433899 1211.158447,490.433899 1207.327515,490.433899 
	C1209.886597,484.463593 1212.140137,479.206360 1214.785400,473.035095 
	C1217.512451,478.951477 1219.941162,484.220520 1222.606689,490.003540 
	C1220.759888,490.186646 1219.532471,490.308350 1217.836548,490.431976 
z"/>
<path fill="#0F1122" opacity="1.000000" stroke="none" 
	d="
M914.792480,479.270569 
	C916.365662,482.920258 917.796143,486.217316 919.466309,490.066772 
	C914.275024,490.066772 909.660339,490.066772 904.424438,490.066772 
	C906.848572,484.528076 909.132385,479.309937 911.714722,473.409698 
	C912.871338,475.580322 913.760498,477.249115 914.792480,479.270569 
z"/>
</svg>